<svg width="20" height="3" viewBox="0 0 20 3" fill="none" xmlns="http://www.w3.org/2000/svg">
<path d="M7.31394 1.5C7.31394 1.89783 7.1559 2.27936 6.8746 2.56066C6.59329 2.84197 6.21176 3 5.81394 3C5.41611 3 5.03458 2.84197 4.75328 2.56066C4.47197 2.27936 4.31394 1.89782 4.31394 1.5C4.31394 1.10218 4.47197 0.720644 4.75328 0.43934C5.03458 0.158035 5.41611 2.36746e-07 5.81394 2.54136e-07C6.21176 2.71525e-07 6.59329 0.158035 6.8746 0.43934C7.1559 0.720645 7.31394 1.10218 7.31394 1.5ZM13.3139 1.5C13.3139 1.89783 13.1559 2.27936 12.8746 2.56066C12.5933 2.84197 12.2118 3 11.8139 3C11.4161 3 11.0346 2.84197 10.7533 2.56066C10.472 2.27936 10.3139 1.89783 10.3139 1.5C10.3139 1.10218 10.472 0.720645 10.7533 0.43934C11.0346 0.158036 11.4161 4.99014e-07 11.8139 5.16404e-07C12.2118 5.33793e-07 12.5933 0.158036 12.8746 0.43934C13.1559 0.720645 13.3139 1.10218 13.3139 1.5ZM19.3139 1.5C19.3139 1.89783 19.1559 2.27936 18.8746 2.56066C18.5933 2.84197 18.2118 3 17.8139 3C17.4161 3 17.0346 2.84197 16.7533 2.56066C16.472 2.27936 16.3139 1.89783 16.3139 1.5C16.3139 1.10218 16.472 0.720645 16.7533 0.43934C17.0346 0.158036 17.4161 7.61283e-07 17.8139 7.78672e-07C18.2118 7.96062e-07 18.5933 0.158036 18.8746 0.43934C19.1559 0.720645 19.3139 1.10218 19.3139 1.5Z" fill="black" fill-opacity="0.6"/>
</svg>
